<svg xmlns="http://www.w3.org/2000/svg" height="1000" width="1000" version="1.1" xmlns:xlink="http://www.w3.org/1999/xlink" xmlns:svgjs="http://svgjs.com/svgjs"><g><path d="M470.83 399.3C466.1 405.22 462.94 409.16 462.94 409.16 462.94 409.16 445.14 360.54 436.33 342.86 427.53 325.12 423.32 314.94 418.13 317.83 413.67 320.33 417.08 340.17 417.08 340.17 417.08 340.17 410.25 332.68 404.6 329.86 403.81 329.46 400.07 327.62 396.78 328.74 391.13 330.64 391.92 335.97 391.92 335.97 391.92 335.97 383.9 333.07 382.33 341.55 382.33 341.55 375.1 343.13 376.74 350.35 376.74 350.35 370.89 350.68 372.08 358.3 373.26 365.93 378.38 372.37 381.41 372.37 382.92 372.37 384.23 371.91 385.15 370.79 389.88 378.48 395.66 383.6 404.2 385.57 404.2 385.57 412.22 477.03 458.28 477.03 478.98 477.03 494.22 465.27 502.23 457.19L470.83 399.3Z" fill="#6495ED" opacity="1" stroke-width="4" stroke="none"></path><path d="M376.61 350.42C377.73 356.33 381.47 368.16 388.63 366.25 388.63 366.25 392.18 365.2 392.97 360.74" stroke="#000000" stroke-width="4" stroke-linecap="round" stroke-linejoin="round" opacity="1" fill="none"></path><path d="M382.19 341.55C383.44 348.19 388.17 360.08 392.97 360.67 397.77 361.26 398.75 353.9 398.75 353.9" stroke="#000000" stroke-width="4" stroke-linecap="round" stroke-linejoin="round" opacity="1" fill="none"></path><path d="M391.85 335.97C392.31 340.89 396.12 354.89 401.12 354.69 406.11 354.49 405.91 347.27 404.4 340.76" stroke="#000000" stroke-width="4" stroke-linecap="round" stroke-linejoin="round" opacity="1" fill="none"></path><path d="M385.02 370.86C386.2 368.43 385.02 366.06 385.02 366.06" stroke="#000000" stroke-width="4" stroke-linecap="round" stroke-linejoin="round" opacity="1" fill="none"></path><path d="M443.36 668.75L377.99 634.98 375.95 642.8C374.31 651.41 372.86 658.11 371.94 660.34L375.95 703.64H428.52L435.35 700.81C438.37 692.54 441.2 683.73 443.43 675.65L443.36 668.75Z" fill="#6495ED " opacity="1" stroke-width="4" stroke="none"></path><path d="M543.96 699.11L545.93 694.7C544.94 686.23 543.69 678.02 542.18 670.13L538.57 659.22 465.83 660.34 467.54 670.13C469.45 676.44 470.7 682.22 471.22 686.62L490.47 724.27 543.96 699.11Z" fill="#6495ED" opacity="1" stroke-width="4" stroke="none"></path><path d="M597.37 507.71L592.38 484.52 509.13 488.99 504.14 491.62C504.14 491.62 436.99 497 411.63 522.96 391.72 543.39 389.36 571.71 381.67 612.25 379.63 623.15 377.66 634.06 375.95 642.93L443.36 675.78C455.12 631.56 456.18 609.49 456.11 580.91L537.84 581.17C576.61 581.3 605.52 545.56 597.37 507.71Z" fill="#006A4E" opacity="1" stroke-width="4" stroke="none"></path><path d="M456.04 580.91L441.79 545.04C418.73 563.5 423.32 603.32 448.03 657 455.39 624.67 456.18 605.03 456.04 580.91Z" fill="#111d17" opacity="0.2" stroke-width="4" stroke="none"></path><path d="M631.01 521.31C625.89 498.91 617.61 484.78 617.61 484.78L571.35 487.74C571.35 487.74 475.43 498.45 445.93 533.4 421.94 561.85 455.65 631.17 467.48 670.07H542.18C535.74 636.43 524.97 606.86 512.09 581.37H573C619.91 581.43 638.11 552.19 631.01 521.31Z" fill="#006A4E" opacity="1" stroke-width="4" stroke="none"></path><path d="M631.01 521.31C625.89 498.91 617.61 484.78 617.61 484.78L571.35 487.74C571.35 487.74 509.26 495.36 546.52 500.75L632.06 527.42C631.87 525.45 631.47 523.42 631.01 521.31Z" fill="#111d17" opacity="0.2" stroke-width="4" stroke="none"></path><path d="M499.87 558.51L512.16 581.44C512.16 581.44 580.88 581.44 560.84 581.44 534.3 581.44 509.33 555.62 499.87 558.51Z" fill="#111d17" opacity="0.2" stroke-width="4" stroke="none"></path><path d="M484.63 508.7C468.73 515.07 454.53 523.22 445.93 533.4 429.04 553.38 440.74 593.59 453.22 629.2" stroke="#111d17" stroke-width="4" stroke-linecap="round" stroke-linejoin="round" opacity="1" fill="none"></path><path d="M467.54 670.13H542.25" stroke="#111d17" stroke-width="4" stroke-linecap="round" stroke-linejoin="round" opacity="1" fill="none"></path><path d="M375.89 642.8L443.43 675.78" stroke="#111d17" stroke-width="4" stroke-linecap="round" stroke-linejoin="round" opacity="1" fill="none"></path><path d="M513.47 334.07C521.22 341.29 535.94 337.35 535.94 337.35V379.93L584.36 372.44 586.01 349.11 585.35 300.43C585.35 284.53 585.35 266.59 568.2 259.23 549.01 250.89 523.52 253.58 515.9 263.5 508.34 273.49 509.99 288.86 509.2 298.92 508.34 309.1 503.35 324.93 513.47 334.07Z" fill="#6495ED" opacity="1" stroke-width="4" stroke="none"></path><path d="M659.2 413.44C644.74 387.94 626.28 368.1 616.69 361.14V361.01C607.49 354.17 597.17 348.98 586.01 346.02 586.01 346.02 574.77 365.74 555.85 365.74 536.14 365.74 535.94 346.09 535.94 346.09 533.18 346.48 515.83 349.7 500.59 364.95 490.47 375.33 477.14 391.16 469.51 400.82L501.18 458.31C503.68 455.75 506.57 452.33 508.61 449.38L504.01 491.95H621.22L619.19 433.28 659.2 413.44Z" fill="#32ffa7" opacity="1" stroke-width="4" stroke="none"></path><path d="M535.87 337.41V344.51L550.46 331.3C542.9 335.64 535.87 337.41 535.87 337.41Z" fill="#171717" opacity="0.2" stroke-width="4" stroke="none"></path><path d="M509.72 282.81C509.72 282.81 514.32 283.73 519.84 279.13 519.84 279.13 523.85 290.5 537.71 285.05 537.45 295.62 549.21 299.7 549.21 299.7 549.21 299.7 561.76 281.3 571.75 289.65 583.11 299.11 568.46 318.03 568.46 318.03 572.93 322.96 579.37 326.04 586.07 326.5L586.14 298.78C586.14 282.88 585.55 261.13 568.4 253.77 549.21 245.43 523.39 252.13 515.83 262.12 511.7 267.7 510.25 274.8 509.72 282.81Z" fill="#000000" opacity="1" stroke-width="4" stroke="none"></path><path d="M595.99 425.13L595.4 492.08H621.29L612.94 455.29 595.99 425.13Z" fill="#000000" opacity="0.2" stroke-width="4" stroke="none"></path><path d="M468.13 402.65C464.98 406.66 462.94 409.09 462.94 409.09L467.08 419.67 468.13 402.65Z" fill="#171717" opacity="0.2" stroke-width="4" stroke="none"></path><path d="M489.88 467.38C494.68 464.22 498.69 460.74 501.77 457.65 504.27 455.09 506.64 452.33 508.67 449.38L511.83 418.56 489.88 467.38Z" fill="#000000" opacity="0.2" stroke-width="4" stroke="none"></path><path d="M467.74 421.31L462.94 409.16" stroke="#000000" stroke-width="4" stroke-linecap="round" opacity="1" fill="none"></path><path d="M508.67 449.43L511.83 413.56" stroke="#000000" stroke-width="4" stroke-linecap="round" opacity="1" fill="none"></path><path d="M558.48 306.53L564.26 300.75" stroke="#000000" stroke-width="4" stroke-linecap="round" opacity="1" fill="none"></path><path d="M462.81 511.46L438.5 451.41C436.07 445.36 438.96 440.43 445.01 440.43H537.39C543.43 440.43 550.39 445.3 552.89 451.41L577.2 511.46C579.63 517.5 576.74 522.43 570.7 522.43H478.25C472.21 522.37 465.24 517.5 462.81 511.46Z" fill="#2c5b51" opacity="1" stroke-width="4" stroke="none"></path><path d="M467.28 463.59C469.04 461.52 468.14 457.85 465.26 455.41 462.39 452.96 458.63 452.66 456.87 454.73 455.11 456.81 456.01 460.47 458.88 462.92 461.75 465.36 465.51 465.66 467.28 463.59Z" fill="#ffffff" opacity="1" stroke-width="4" stroke="none"></path><path d="M522.73 320.2C525.49 320.73 527.6 319.22 528.25 317.05" stroke="#000000" stroke-width="4" stroke-linecap="round" opacity="1" fill="none"></path><path d="M540.34 480.18C538.76 480.97 518.27 488.86 514.32 492.08 507.16 497.79 520.63 499.96 520.63 499.96 519.84 507.06 530.95 506.27 530.95 506.27 530.95 506.27 530.16 511 540.41 511 550.72 511 585.35 500.68 585.35 500.68 585.35 500.68 627.14 503.84 642.97 503.05 658.74 502.26 690.28 499.89 678.52 455.74 674.57 441.29 666.03 425.19 659 412.9L603.94 439.45C608.34 448.78 612.09 455.74 612.09 455.74 612.09 455.74 572.01 461 550.59 466.06 530.09 470.79 510.51 476.83 511.17 481.7 511.83 487.94 540.34 480.18 540.34 480.18Z" fill="#6495ED" opacity="1" stroke-width="4" stroke="none"></path><path d="M555.98 497.6L530.75 506.2" stroke="#000000" stroke-width="4" stroke-linecap="round" opacity="1" fill="none"></path><path d="M551.25 486.49L520.5 499.11" stroke="#000000" stroke-width="4" stroke-linecap="round" opacity="1" fill="none"></path><path d="M547.44 478.09L539.55 480.45" stroke="#000000" stroke-width="4" stroke-linecap="round" opacity="1" fill="none"></path><path d="M521.55 311.59C520.83 311.33 520.3 310.8 519.97 310.14 519.65 309.09 520.3 307.25 520.76 306.07" stroke="#000000" stroke-width="4" stroke-linecap="round" opacity="1" fill="none"></path><path d="M514.72 302.92C515.88 302.92 516.82 301.98 516.82 300.82 516.82 299.66 515.88 298.72 514.72 298.72 513.55 298.72 512.61 299.66 512.61 300.82 512.61 301.98 513.55 302.92 514.72 302.92Z" fill="#000000" opacity="1" stroke-width="4" stroke="none"></path><path d="M532 303.77C533.16 303.77 534.1 302.83 534.1 301.67 534.1 300.51 533.16 299.57 532 299.57 530.83 299.57 529.89 300.51 529.89 301.67 529.89 302.83 530.83 303.77 532 303.77Z" fill="#000000" opacity="1" stroke-width="4" stroke="none"></path><path d="M446.39 735.38C454.14 722.44 471.35 719.15 471.48 693 471.48 691.56 471.48 689.98 471.35 688.4 471.29 687.75 471.22 687.09 471.16 686.37H488.44C494.55 686.37 499.28 691.82 498.29 697.93L495.6 714.88C495.6 714.88 514.59 696.16 545.99 694.78 546.65 700.36 547.17 706.14 547.57 711.99 547.7 714.16 547.83 716.39 547.96 718.56 548.23 724.01 548.42 729.73 548.49 735.45V735.51" fill="#61ffbb" opacity="1" stroke-width="4" stroke="none"></path><path d="M446.39 735.38L548.55 735.32C548.62 740.05 548.55 745.11 548.42 750.03H442.71C442.71 746.09 443.3 742.81 444.28 739.91 444.81 738.27 445.53 736.76 446.39 735.38Z" fill="#006A4E" opacity="1" stroke-width="4" stroke="none"></path><path d="M469.19 706.93L480.81 711.79" stroke="#216749" stroke-width="4" stroke-linecap="round" stroke-linejoin="round" opacity="1" fill="none"></path><path d="M463.8 715.87L473.65 723.36" stroke="#216749" stroke-width="4" stroke-linecap="round" stroke-linejoin="round" opacity="1" fill="none"></path><path d="M495.53 714.81L491.39 734.72" stroke="#216749" stroke-width="4" stroke-linecap="round" stroke-linejoin="round" opacity="1" fill="none"></path><path d="M328.52 691.36C341.26 683.28 358.15 688.01 369.91 664.68 370.57 663.37 371.22 661.99 371.88 660.48L371.94 660.35 384.23 666.26C390.54 669.28 392.64 677.3 388.63 683.08L379.83 695.76C379.83 695.76 406.04 686.83 435.61 700.3 433.77 705.35 431.73 710.48 429.63 715.6 428.78 717.64 427.92 719.68 427 721.78 424.84 726.77 422.54 731.9 420.04 737.02 419.97 737.16 419.58 737.61 419.51 737.75L328.25 691.75C328.25 691.56 328.38 691.49 328.52 691.36Z" fill="#61ffbb" opacity="1" stroke-width="4" stroke="none"></path><path d="M324.84 694.19C325.89 693.2 326.94 692.41 328.25 691.56L419.97 737.29C417.74 741.62 415.57 745.76 413.27 750.1L318.66 702.92C320.43 699.05 322.54 696.29 324.84 694.19Z" fill="#006A4E" opacity="1" stroke-width="4" stroke="none"></path><path d="M360.32 676.64L368.46 686.43" stroke="#216749" stroke-width="4" stroke-linecap="round" stroke-linejoin="round" opacity="1" fill="none"></path><path d="M350.99 681.5L356.31 692.67" stroke="#216749" stroke-width="4" stroke-linecap="round" stroke-linejoin="round" opacity="1" fill="none"></path><path d="M379.76 695.69L367.67 710.47" stroke="#216749" stroke-width="4" stroke-linecap="round" stroke-linejoin="round" opacity="1" fill="none"></path><path d="M630.29 518.17H608.34L611.83 538.67C613.21 546.81 620.3 552.86 628.65 552.86" stroke="#111d17" stroke-width="4" stroke-linecap="round" opacity="1" fill="none"></path><path d="M512.09 581.43C512.09 581.43 505.78 569.54 502.83 564.02" stroke="#182b23" stroke-width="4" stroke-linecap="round" stroke-linejoin="round" opacity="1" fill="none"></path><path d="M417.28 340.37L418.33 343C418.33 343 410.64 353.78 409.26 364.88" stroke="#000000" stroke-width="4" stroke-linecap="round" stroke-linejoin="round" opacity="1" fill="none"></path><path d="M546.78 333.07C546.78 333.07 542.97 335.64 535.94 337.35" stroke="#000000" stroke-width="4" stroke-linecap="round" opacity="1" fill="none"></path><path d="M632.79 452.65L611.5 455.87" stroke="#000000" stroke-width="4" stroke-linecap="round" opacity="1" fill="none"></path><path d="M595.66 425.26L603.81 439.32" stroke="#000000" stroke-width="4" stroke-linecap="round" opacity="1" fill="none"></path></g></svg>