<svg xmlns="http://www.w3.org/2000/svg" xmlns:xlink="http://www.w3.org/1999/xlink" width="220" height="500" viewBox="0 0 220 500">
  <defs>
    <clipPath id="clip-Mesa_de_trabajo_4">
      <rect width="220" height="500"/>
    </clipPath>
  </defs>
  <g id="Mesa_de_trabajo_4" data-name="Mesa de trabajo – 4" clip-path="url(#clip-Mesa_de_trabajo_4)">
    <rect width="220" height="500" fill="#fff"/>
    <g id="woman-celebrating" transform="translate(-386.415 -242.047)">
      <path id="Trazado_95" data-name="Trazado 95" d="M447.63,703.574a199.861,199.861,0,0,1,1.317-20.332,107.167,107.167,0,0,1,2.74-14.8c4.367-16.808,5.48-23.6,9.372-40.558,1.317-5.693,3.108-10.166,3.64-12.8,14.688.678,29.385,1.317,44.082,1.994l-2.266,10.747c-.213.949-.416,1.956-.629,2.846-2.111,9.585-4.376,19.064-6.584,28.184-2.111,8.685-4.057,16.856-5.693,24.331a120.468,120.468,0,0,0-2.788,19.858v.058l-21.388,27.545Z" transform="translate(-1.835 -11.609)" fill="#6495ed"/>
      <path id="Trazado_96" data-name="Trazado 96" d="M538.092,703.5c-.794-6.642-1.375-13.322-1.685-19.906-.213-3.64-.368-7.329-.368-11.018v-2.633c.048-12.161.048-27.391-4.9-41.768l1.733-2.1,40.771.261,2.266,1.733c.213,1.268.368,2.372.474,3.379,2,15.482,2.847,31.021,3.582,44.712.155,2.537.261,4.957.426,7.378a192.85,192.85,0,0,0,2.1,19.858v.058l-22.385,25.386Z" transform="translate(-4.49 -11.958)" fill="#6495ed"/>
      <path id="Trazado_97" data-name="Trazado 97" d="M534.825,644.307a80.253,80.253,0,0,0-3.747-16.072l-.048-.155h36.608l.048.213-32.861,16.169Z" transform="translate(-4.487 -12.022)" fill="#1c222d" opacity="0.3"/>
      <path id="Trazado_98" data-name="Trazado 98" d="M457.8,644.4c1.375-6.477,3.64-16.585,3.64-16.585l35.552.2.048.213Z" transform="translate(-2.159 -12.013)" fill="#1c222d" opacity="0.3"/>
      <path id="Trazado_99" data-name="Trazado 99" d="M544.736,355.507c-3.263-12.161-7.32-28.068-7.687-33.132l-.058-.523c-.629-9-1.685-24.021,2.633-24.5h.165a1.726,1.726,0,0,1,1.1.426c.687-4.483,1.317-7.746,1.791-9.75,1.055-4.58,2.846-5.528,4.163-5.528a3.894,3.894,0,0,1,2.208.842c1.055-1.685,2.111-2.527,3.108-2.527,2.111,0,3.273,3.582,3.476,4.318a5.819,5.819,0,0,1,1.317-.32,2.142,2.142,0,0,1,1.685.794c1.636,1.9,1.423,6.642,1.162,9.324a.134.134,0,0,0,.261.048c1.055-2.421,1.849-3.418,2.692-3.418a1.068,1.068,0,0,1,.736.31c2.682,2.324.523,17.021.474,17.65.687,7.01.155,13.013-1.636,17.854a169.37,169.37,0,0,1,9.479,20.39.047.047,0,0,1-.048.048l-26.868,8.114Z" transform="translate(-4.658 -0.98)" fill="#6495ed"/>
      <path id="Trazado_100" data-name="Trazado 100" d="M433.284,351.938l-1.1-1.423c2.847-8.636,5.374-14.959,5.635-15.482-.155-.581-2.159-7.378,2.372-20.545-.165-.842-2.372-13.429.523-15.375a1.039,1.039,0,0,1,.687-.213c.949,0,1.733,1.365,2.634,4.686,0-2.208.213-7.949,2.159-10.011a2.116,2.116,0,0,1,1.578-.736,2.672,2.672,0,0,1,1.53.474c.261-.629,1.791-3.844,3.737-3.844,1.1,0,2.111,1,3,2.895a3.734,3.734,0,0,1,2-.581c1.423,0,3.263,1.055,3.8,6.013.155,1.259.261,3,.368,5.16a1.417,1.417,0,0,1,.891-.319,1.081,1.081,0,0,1,.426.058c2.469.784,2.895,10.689,1.152,27.071-.523,4.841-1.685,14.533-3.631,28.494l-.368-.107Z" transform="translate(-1.344 -1.255)" fill="#6495ed"/>
      <path id="Trazado_101" data-name="Trazado 101" d="M461.495,624.433v-.106c1.472-9.169,1.578-15.433,1.578-24.709,0-3.631-.31-8.055-.678-13.216-1.53-21.281-3.853-53.416,13.109-79.644l.058-.058H526.81l.058.058c.368.629,38.709,64.1,46.822,117.569v.106Z" transform="translate(-2.271 -8.162)" fill="#006a4e"/>
      <path id="Trazado_102" data-name="Trazado 102" d="M466.778,525.772a81.189,81.189,0,0,1,8.791-18.861l.213-.261h51.257l.048.213L466.72,525.927Z" transform="translate(-2.442 -8.161)" opacity="0.3"/>
      <path id="Trazado_103" data-name="Trazado 103" d="M568.125,349.676l-.165-.416-26.81,7.852c-.048,0-.107.048-.048.155,2.1,7.852,4,14.378,4.154,15.007l-30.227,45.409v11.744c-.842,1.743-4.163,5.267-10.06,5.267-6.013,0-12.7-3.689-19.858-10.844-15.433-16.179-27.971-32.5-28.659-33.4.107-.891,2.314-15.636,4.376-30.44V359.9l-28.814-7.533-.058.107c-4.841,14.7-10.108,34.759-7.746,46.619,3.06,15.22,15.908,30.547,26.238,42.824,5.635,6.739,10.534,12.529,12.006,16.43,2.692,7.058,2.8,14.746,2.847,21.494.107,10.273-.048,19.17,8.956,22.065l51.566.058c8.636-2.585,8.588-8.22,8.849-19.383,0-1.268.048-2.634.107-4.115.107-2.053.107-3.95.155-5.577.213-9.8.319-14.281,5.586-26.819l.048-.1c3-5.277,6.109-10.486,9.111-15.54,8.694-14.649,16.914-28.5,22.917-43.095C576.867,376.805,572.491,361.062,568.125,349.676Z" transform="translate(-1.072 -3.156)" fill="#39ff8a"/>
      <path id="Trazado_104" data-name="Trazado 104" d="M505.856,438.433c-13.226,0-18.861-12.645-18.909-12.8-.213-4.638-.581-10.011-.949-15.753-.639-9.372-1.268-19.122-1.268-25.648,0-10.534,8.327-12.858,19.7-12.858,10.321,0,18.328-3.321,23.227,3.95,2.479,3.689,3.321,8.907,4.057,13.535a50,50,0,0,0,1.21,6.216l.213.745c2.053,7.155,3.689,12.8-.213,17.8-3.8,4.851-9.847,4.9-15.753,4.9v10.912a8.563,8.563,0,0,1-1.995,5.9C513.176,437.378,510.068,438.433,505.856,438.433Z" transform="translate(-3.015 -3.835)" fill="#6495ed"/>
      <path id="Trazado_105" data-name="Trazado 105" d="M450.884,493.915c-11.27,0-20.216-5.267-23.9-14.165-3.06-7.271-5.112-17.96,2.372-27.284a30.188,30.188,0,0,1,10.263-8.114c-4.793-18.067-.368-30.818,14.8-42.669,4.531-3.524,10.641-5.422,17.641-5.422a39.745,39.745,0,0,1,9.692,1.162c-.048-1.268-.523-10.7-.523-14.591,0-13.439,12.112-18.173,22.491-18.173,10.321,0,17.224,3,21.862,10.166l.261.523-.155.213c0,.048-1.791,3.524-7.484,3.524a18.859,18.859,0,0,1-5.161-.842c1.162,3.689,1.1,6.38-.107,8.007-.891,1.268-2.479,1.9-4.58,1.9a12.416,12.416,0,0,1-3.166-.426c.426,1.055,2.217,6.013-.629,8.849l-.048.058-.058-.058c-.048-.048-4.9-2.73-9.111-2.73-3.263,0-5.315,1.578-6,4.735-1.849,8.327,10.321,13.535,10.476,13.594l.058.048v.058a24.692,24.692,0,0,1-13.119,21.116c.736,1.791,10.9,27.6-4.793,45.825C474.014,488.435,462.425,493.915,450.884,493.915Z" transform="translate(-1.09 -3.646)"/>
      <path id="Trazado_106" data-name="Trazado 106" d="M509.59,418.025l.107-.165a42.686,42.686,0,0,0,8.114,2.111h.107v7.107Z" transform="translate(-3.805 -5.338)" fill="#1c222d" opacity="0.3"/>
      <path id="Trazado_107" data-name="Trazado 107" d="M503.154,407.337a1.991,1.991,0,0,1-.913-.222l-3.786-1.946a2,2,0,0,1,1.829-3.557l3.786,1.946a2,2,0,0,1-.916,3.779Z" transform="translate(-3.48 -4.877)" fill="#1c222d"/>
      <path id="Trazado_108" data-name="Trazado 108" d="M518.7,422.011a2.023,2.023,0,0,1-.256-.016,25.931,25.931,0,0,1-8.4-2.654,2,2,0,1,1,1.936-3.5,21.869,21.869,0,0,0,6.974,2.187,2,2,0,0,1-.251,3.984Z" transform="translate(-3.85 -5.329)" fill="#1c222d"/>
      <path id="Trazado_109" data-name="Trazado 109" d="M526.134,406.3c-.221,0-.435-.011-.637-.031a4.923,4.923,0,0,1-3.691-1.994,2,2,0,0,1,3.322-2.228,1.544,1.544,0,0,0,.807.246,2.117,2.117,0,0,0,.964-.115,2,2,0,0,1,2.778,2.877A5.057,5.057,0,0,1,526.134,406.3Z" transform="translate(-4.247 -4.87)" fill="#1c222d"/>
      <path id="Trazado_110" data-name="Trazado 110" d="M528.76,392.49a1.215,1.215,0,1,0-1.21-1.22A1.219,1.219,0,0,0,528.76,392.49Z" transform="translate(-4.376 -4.454)"/>
      <path id="Trazado_111" data-name="Trazado 111" d="M519.13,395.371a1.21,1.21,0,1,0-1.21-1.21A1.211,1.211,0,0,0,519.13,395.371Z" transform="translate(-4.07 -4.545)"/>
      <path id="Trazado_112" data-name="Trazado 112" d="M526.561,400.665a2,2,0,0,1-1.468-3.361c-.151-.234-.347-.5-.476-.684a2,2,0,0,1,3.245-2.339c.771,1.069,1.644,2.281,1.38,3.787a3.417,3.417,0,0,1-1.555,2.248A1.991,1.991,0,0,1,526.561,400.665Z" transform="translate(-4.335 -4.625)" fill="#1c222d"/>
      <path id="Trazado_113" data-name="Trazado 113" d="M480.505,626.346a2,2,0,0,1-1.977-2.321c1.547-9.528.436-21.08-.85-34.457-1.082-11.256-2.309-24.013-2.122-37.837a171.786,171.786,0,0,1,6.332-44.976,2,2,0,0,1,3.849,1.088c-8.879,31.42-6.217,59.1-4.078,81.342,1.313,13.652,2.446,25.443.817,35.481A2,2,0,0,1,480.505,626.346Z" transform="translate(-2.786 -8.181)"/>
      <path id="Trazado_114" data-name="Trazado 114" d="M527.436,508.978h0l-51.576-.058a2,2,0,0,1,0-4h0l51.576.058a2,2,0,0,1,0,4Z" transform="translate(-2.733 -8.169)"/>
      <path id="Trazado_115" data-name="Trazado 115" d="M445.828,396.173a2,2,0,0,1-.413-3.957l11.173-2.372a2,2,0,0,1,.831,3.913l-11.173,2.372A2.008,2.008,0,0,1,445.828,396.173Z" transform="translate(-1.778 -4.509)"/>
      <path id="Trazado_116" data-name="Trazado 116" d="M560.106,377.093a2.009,2.009,0,0,1-.376-.036l-10.854-2.062a2,2,0,0,1,.747-3.93l10.854,2.062a2,2,0,0,1-.371,3.965Z" transform="translate(-5.066 -3.912)"/>
      <path id="Trazado_117" data-name="Trazado 117" d="M451.106,740.738c-.736-4.212-1.685-10.273-2.314-15.278a139.464,139.464,0,0,1-1.162-19.48v-.32l5.635.213a8.853,8.853,0,0,1,8.162,5.422l5.848,13.8,2.895-12.374a8.832,8.832,0,0,1,8.646-6.845h11.957v.107c-.474,9.953.891,17.06,4,20.487a55.324,55.324,0,0,0,10.582,9.217c2.062,1.472,3.534,2.111,5.006,4,.107.106.687,1.007.949,1.375.058.048,0,.155-.107.155Z" transform="translate(-1.835 -14.489)" fill="#0d6efd"/>
      <path id="Trazado_118" data-name="Trazado 118" d="M544.691,741.3c-.213-.949-.581-2.585-.842-3.737l-.261-1.055a285.6,285.6,0,0,1-5.267-30.547v-.107h7.107a8.536,8.536,0,0,1,7.852,5.1l6.429,14.649,2.527-12.858a8.682,8.682,0,0,1,8.423-6.952l11.909-.842.155.842c1.268,7.852,3,14.281,4.9,17.96,2.111,4.115,6.584,7.426,10.486,10.437,2.943,2.207,4.9,3.263,6.429,5.422l1.1,1.472a.109.109,0,0,1-.107.165Z" transform="translate(-4.719 -14.466)" fill="#0d6efd"/>
      <path id="Trazado_119" data-name="Trazado 119" d="M470.185,743.389a2,2,0,0,1-1.977-1.714L466,726.4a2,2,0,0,1,3.959-.572l2.207,15.278a2,2,0,0,1-1.982,2.286Z" transform="translate(-2.482 -15.139)"/>
      <path id="Trazado_120" data-name="Trazado 120" d="M562.723,743.406a2,2,0,0,1-1.974-1.7l-2.266-14.746a2,2,0,1,1,3.954-.607L564.7,741.1a2,2,0,0,1-1.979,2.3Z" transform="translate(-5.423 -15.156)"/>
      <path id="Trazado_121" data-name="Trazado 121" d="M484.839,723.685a2,2,0,0,1-.572-3.917l7.746-2.314a2,2,0,1,1,1.145,3.833l-7.746,2.314A2,2,0,0,1,484.839,723.685Z" transform="translate(-3.018 -14.925)"/>
      <path id="Trazado_122" data-name="Trazado 122" d="M488.652,731.268a2,2,0,0,1-.949-3.762l6.371-3.427a2,2,0,0,1,1.9,3.523l-6.371,3.427A1.991,1.991,0,0,1,488.652,731.268Z" transform="translate(-3.139 -15.13)"/>
      <path id="Trazado_123" data-name="Trazado 123" d="M580.049,723.692a2,2,0,0,1-.574-3.916l7-2.1a2,2,0,0,1,1.15,3.831l-7,2.1A2,2,0,0,1,580.049,723.692Z" transform="translate(-6.046 -14.932)"/>
      <path id="Trazado_124" data-name="Trazado 124" d="M583.862,731.273a2,2,0,0,1-.944-3.765l6.109-3.263a2,2,0,1,1,1.884,3.528l-6.109,3.263A1.992,1.992,0,0,1,583.862,731.273Z" transform="translate(-6.167 -15.136)"/>
      <path id="Trazado_125" data-name="Trazado 125" d="M452.583,749.569s-.629-3.311-1.365-7.687l-.058-.261,59.951.155.048.058a12.182,12.182,0,0,1,2.788,7.736v.107Z" transform="translate(-1.947 -15.632)"/>
      <path id="Trazado_126" data-name="Trazado 126" d="M546.688,749.634s-.736-2.634-1.9-7.688l60.687-.106.048.048c.107.165.261.368.368.532A12.577,12.577,0,0,1,608,749.634v.107Z" transform="translate(-4.925 -15.639)"/>
      <path id="Trazado_127" data-name="Trazado 127" d="M443.336,455.554a2,2,0,0,1-1.594-.79,32.21,32.21,0,0,1-3.509-7.132,2,2,0,1,1,3.775-1.323,27.9,27.9,0,0,0,2.919,6.035,2,2,0,0,1-1.591,3.21Z" transform="translate(-1.596 -6.263)"/>
      <path id="Trazado_128" data-name="Trazado 128" d="M483.958,408.767a2,2,0,0,1-2-1.923l-.319-8.327a2,2,0,1,1,4-.153l.319,8.327a2,2,0,0,1-1.922,2.075Z" transform="translate(-2.98 -4.72)"/>
      <path id="Trazado_129" data-name="Trazado 129" d="M515.787,299.691c-13.69-1.055-22.54,10.534-16.324,20.545,6.845,11.057,23.7,0,23.7,0s-9.9,23.334,5.848,26.442,21.02-20.119,21.02-20.119,20.536,18.957,31.6,4.212c8.588-11.483-9.43-25.28-9.43-25.28s22.6-.533,19.383-17.069c-2.846-14.7-22.6-8.743-22.6-8.743s13.168-15.278,1.578-22.656c-9.159-5.838-20.536,11.589-20.536,11.589s-2.9-19.383-16.856-14.746c-12.645,4.212-4.163,23.227-4.163,23.227s-17.437-11.115-23.76,1.53S515.787,299.691,515.787,299.691Z" transform="translate(-3.419 -0.1)" fill="#084baf"/>
      <path id="Trazado_130" data-name="Trazado 130" d="M542.131,347.933a2,2,0,0,1-1.3-3.521c6.219-5.307,8.648-15.778,8.671-15.883a2,2,0,0,1,3.307-1.028c.069.064,7.129,6.5,14.874,8.654a2,2,0,1,1-1.071,3.854c-5.833-1.621-11.132-5.244-14.083-7.54-1.288,3.923-4.1,10.715-9.1,14.987A1.992,1.992,0,0,1,542.131,347.933Z" transform="translate(-4.84 -2.511)"/>
      <path id="Trazado_131" data-name="Trazado 131" d="M542.61,308.077c-7.368,11.057-4.212,16.856-1.055,17.379s8.433-1.055,10.544-13.168c0,0,8.423,8.956,12.112,3.689,4.9-7.01-6.845-14.223-6.845-14.223s11.057-7.484,5.79-11.589c-4.744-3.689-13.69,5.79-13.69,5.79s.523-12.112-4.744-11.057c-5.48,1.1-2.111,15.8-2.111,15.8s-17.166,5.374-12.635,10.534C533.654,315.445,542.61,308.077,542.61,308.077Z" transform="translate(-4.429 -1.108)" opacity="0.3"/>
      <path id="Trazado_132" data-name="Trazado 132" d="M538.855,307.549c-4.734,7.9-2.633,13.168.533,13.69s7.9-1.046,11.057-10.534c0,0,9.488,5.267,12.122,0,3.679-7.368-6.855-11.589-6.855-11.589s6.584-10.321,2.111-13.69c-4.744-3.689-10.534,7.378-10.534,7.378s-4.744-8.956-8.956-6.322c-4.744,2.943,0,11.589,0,11.589s-11.9.523-11.163,7.368C527.8,311.238,538.855,307.549,538.855,307.549Z" transform="translate(-4.363 -1.103)" fill="#006a4e"/>
      <path id="Trazado_133" data-name="Trazado 133" d="M550.673,279.021a2.02,2.02,0,0,1-.267-.018,2,2,0,0,1-1.718-2.247l1.055-7.9a2,2,0,1,1,3.965.53l-1.055,7.9A2,2,0,0,1,550.673,279.021Z" transform="translate(-5.112 -0.608)"/>
      <path id="Trazado_134" data-name="Trazado 134" d="M522.134,303.85a2.021,2.021,0,0,1-.22-.012l-5.741-.629a2,2,0,1,1,.436-3.976l5.741.629a2,2,0,0,1-.215,3.988Z" transform="translate(-4.021 -1.629)"/>
      <path id="Trazado_135" data-name="Trazado 135" d="M524.011,324.3a2,2,0,0,1-1.347-3.479l4.744-4.318a2,2,0,1,1,2.693,2.958l-4.744,4.318A1.993,1.993,0,0,1,524.011,324.3Z" transform="translate(-4.264 -2.162)"/>
      <path id="Trazado_136" data-name="Trazado 136" d="M574.5,309.176a2.009,2.009,0,0,1-.415-.043l-5.006-1.055a2,2,0,0,1,.825-3.914l5.006,1.055a2,2,0,0,1-.411,3.957Z" transform="translate(-5.71 -1.785)"/>
      <path id="Trazado_137" data-name="Trazado 137" d="M419.876,313.185c-9.159,11.7-9.324,23.75-.213,29.6,13.168,8.433,27.923-10.108,27.923-10.108s9.692,25.067,27.39,15.375c16.324-8.956,1.055-31.021,1.055-31.021s17.011,7.32,22.123-3.214-2.692-20.381-14.223-21.6c0,0,13.69-6.313,8.956-15.8-4.851-9.692-19.015-1.365-19.015-1.365s3.631-7.213,0-10.011-11.008,5.064-11.008,5.064,4.212-18.444-10.544-20.022-17.379,20.545-17.379,20.545-8.423-23.7-23.7-14.223,3,26.122,3,26.122-27.236-.155-24.07,20.235C393.328,323.293,419.876,313.185,419.876,313.185Z" fill="#006a4e"/>
      <path id="Trazado_138" data-name="Trazado 138" d="M462.208,353.5a1.992,1.992,0,0,1-.883-.207,22.779,22.779,0,0,1-6.266-4.722,36.211,36.211,0,0,1-4.384-5.651c-.919-1.445-1.662-2.8-2.226-3.916-2.681,2.8-7.67,7.331-13.578,9.476a2,2,0,1,1-1.365-3.76c7.622-2.767,13.86-10.5,13.922-10.579a2,2,0,0,1,3.429.526c.043.11,4.417,11.182,12.235,15.038a2,2,0,0,1-.886,3.794Z" transform="translate(-1.408 -2.715)"/>
      <path id="Trazado_139" data-name="Trazado 139" d="M440.75,295.263c2.1-8.908,7.368-14.7,11.589-14.175s4.212,7.378.523,13.7c0,0,17.486-4.483,17.912,2.1.523,8.433-16.334,6.322-16.334,6.322s15.278,15.8,4.212,20.013c-7.523,2.847-11.58-10-11.58-10s-4.221,13.69-12.645,10.534c-8.375-3.166,2.634-19.49,2.634-19.49s-16.7,2.682-13.168-5.79C427.263,290.364,440.75,295.263,440.75,295.263Z" transform="translate(-1.065 -0.988)" opacity="0.3"/>
      <path id="Trazado_140" data-name="Trazado 140" d="M439.182,292.045c-1.055-9.43,3.679-13.109,7.9-12.587s5.79,7.9,4.212,12.112c0,0,10.582-6.526,14.223-1,4.734,7.32-7.9,12.064-7.9,12.064s11.589,10,3.679,15.269c-6.681,4.483-14.746-7.368-14.746-7.368s-6.429,12.064-14.223,7.9c-7.891-4.212,2.324-15.753,2.324-15.753s-13.9-2.159-10.379-10.641C427.592,283.99,439.182,292.045,439.182,292.045Z" transform="translate(-1.074 -0.935)" fill="#084baf"/>
      <path id="Trazado_141" data-name="Trazado 141" d="M463.129,277.756a2,2,0,0,1-1.848-2.764l2.062-5a2,2,0,0,1,3.7,1.526l-2.062,5A2,2,0,0,1,463.129,277.756Z" transform="translate(-2.328 -0.66)"/>
      <path id="Trazado_142" data-name="Trazado 142" d="M422.788,286.6a2.018,2.018,0,0,1-.26-.017l-7.746-1.007a2,2,0,0,1,.516-3.967l7.746,1.007a2,2,0,0,1-.255,3.984Z" transform="translate(-0.799 -1.068)"/>
      <path id="Trazado_143" data-name="Trazado 143" d="M478.666,321.09a1.991,1.991,0,0,1-1.178-.385l-5.848-4.27A2,2,0,0,1,474,313.2l5.848,4.27a2,2,0,0,1-1.181,3.615Z" transform="translate(-2.636 -2.061)"/>
    </g>
  </g>
</svg>
