<svg xmlns="http://www.w3.org/2000/svg" xmlns:xlink="http://www.w3.org/1999/xlink" width="498" height="78.999" viewBox="0 0 498 78.999">
  <defs>
    <clipPath id="clip-path">
      <rect id="Rectángulo_320" data-name="Rectángulo 320" width="498" height="78.999" fill="none"/>
    </clipPath>
  </defs>
  <g id="Grupo_140" data-name="Grupo 140" clip-path="url(#clip-path)">
    <path id="Trazado_96" data-name="Trazado 96" d="M347.339,46V33.034a.737.737,0,0,1,.738-.736c4.93,0,9.839.032,14.747-.008,7.871-.064,15.76.113,23.6-.394,4.218-.273,8.1-2.32,7.8-7.486-.287-4.944-3.888-6.9-8.356-6.974-10.293-.184-20.592-.12-30.888-.153-2.159-.007-4.319,0-6.745,0a.739.739,0,0,1-.74-.735V3.192a.733.733,0,0,1,.448-.676,3.854,3.854,0,0,1,1.517-.418c15.717.319,31.436.632,47.148,1.116a21.872,21.872,0,0,1,6.431,1.6c12.834,4.57,18.794,21.013,5.105,32.2a.739.739,0,0,0-.091,1.071c3.42,3.7,7.711,7.012,9.767,11.374C423.6,61.7,415.8,74.172,401.058,76.729c-6.312,1.1-12.842,1.158-19.28,1.266-11.037.185-22.079.058-33.5.053a.737.737,0,0,1-.738-.735V63.3a.733.733,0,0,1,.733-.735c5.223,0,10.538.006,15.853,0,8.48-.011,16.965.14,25.437-.119,4.348-.133,7.977-1.987,8.381-7s-2.673-7.543-7.155-8.072a133.374,133.374,0,0,0-14.463-.611c-9.226-.082-18.453-.028-28.251-.025a.739.739,0,0,1-.74-.735" transform="translate(-103.359 -0.624)"/>
    <path id="Trazado_97" data-name="Trazado 97" d="M632.73,58.746V76.93a.736.736,0,0,1-.735.735H612.282a.736.736,0,0,1-.735-.735V41.966a.738.738,0,0,1,.738-.736c4.108,0,8.206.039,12.3-.009,7.465-.087,14.955.114,22.385-.447,7.551-.571,11.344-4.64,11.256-10.885-.093-6.548-4.345-10.784-11.844-11.022-9.278-.3-18.572-.129-27.858-.159-1.979-.006-3.958,0-6.219,0a.739.739,0,0,1-.74-.735V2.576a.733.733,0,0,1,.731-.734c7.316-.016,14.847-.266,22.351.076,8.419.384,17.018.438,25.165,2.281,13.066,2.955,20.5,13.588,20.155,26.523A26.3,26.3,0,0,1,658.99,56.245c-5.65,1.263-11.588,1.3-17.407,1.727-2.549.189-5.122.058-8.11.038a.739.739,0,0,0-.743.736" transform="translate(-181.98 -0.517)"/>
    <path id="Trazado_98" data-name="Trazado 98" d="M73.125,3.18,43.82,35.112a.738.738,0,0,0-.041.948L75.136,76.772a.738.738,0,0,1-.582,1.188c-7.84.02-14.754.181-21.642-.169-1.533-.078-3.209-2.08-4.392-3.54-6.19-7.637-12.252-15.38-18.151-22.832a.736.736,0,0,0-.906-.2c-11.485,5.8-7.116,16.532-8.308,25.75a.739.739,0,0,1-.735.636H.8a.735.735,0,0,1-.733-.735c-.014-6.33-.2-12.5.14-18.647C.3,56.5,1.85,54.636,3.155,53.228,18.106,37.094,33.077,20.976,48.241,5.043a11.045,11.045,0,0,1,6.7-2.957c5.483-.381,11.007-.176,17.648-.142a.737.737,0,0,1,.535,1.236" transform="translate(0 -0.553)"/>
    <path id="Trazado_99" data-name="Trazado 99" d="M251.253,78.667a.735.735,0,0,1-.735-.731c-.022-3.85-.168-17.058-.168-18.709,0-6.48-3.817-14.8-12.683-27.119-6.178-8.581-11.111-18.054-16.99-27.935a.737.737,0,0,1,.63-1.113c6.9-.021,12.926-.2,18.922.166,1.5.091,3.3,1.961,4.234,3.463,5.109,8.2,10.015,16.534,15.507,25.705a.74.74,0,0,0,1.265,0c5.145-8.527,10.059-16.291,14.491-24.319A10,10,0,0,1,285.318,3c3.9.31,7.876.089,12.413.052a.74.74,0,0,1,.666,1.065c-.764,1.559-1.354,2.841-2.074,4.044-7.346,12.272-15.009,24.368-21.942,36.868-2.3,4.151-3.9,7.754-3.9,14.046,0,0-.149,11.927-.159,18.859a.735.735,0,0,1-.735.734Z" transform="translate(-65.637 -0.883)"/>
    <path id="Trazado_100" data-name="Trazado 100" d="M183.738,3.269V17.461A.736.736,0,0,1,183,18.2H125.214a.736.736,0,0,1-.735-.735V3.269a.736.736,0,0,1,.735-.735H183a.736.736,0,0,1,.735.735" transform="translate(-37.042 -0.754)"/>
    <path id="Trazado_101" data-name="Trazado 101" d="M183.56,45.043v14a.736.736,0,0,1-.735.735H125.059a.736.736,0,0,1-.735-.735v-14a.736.736,0,0,1,.735-.735h57.765a.736.736,0,0,1,.735.735" transform="translate(-36.996 -13.185)"/>
    <path id="Trazado_102" data-name="Trazado 102" d="M183.415,102.533a.737.737,0,0,1-.738.735c-18.626,0-36.708,0-54.79-.013-1.021,0-2.041-.144-3.518-.287a.737.737,0,0,1-.664-.731c-.016-4.172-.169-8.142.122-12.078.085-1.155,1.616-3.152,2.5-3.161,18.661-.181,37.324-.14,56.351-.14a.737.737,0,0,1,.737.735Z" transform="translate(-36.795 -25.846)"/>
    <path id="Trazado_103" data-name="Trazado 103" d="M.494,31.818V3.365a.736.736,0,0,1,.735-.735H20.418a.739.739,0,0,1,.716.551c1.179,4.659.309,8.576-3.523,12.277C12.3,20.591,7.429,26.183,1.772,32.316a.737.737,0,0,1-1.278-.5" transform="translate(-0.147 -0.783)"/>
    <path id="Trazado_104" data-name="Trazado 104" d="M503.743,0c-9.917.177-23.115,5.9-31.3,20.253a38.738,38.738,0,0,0,15.22,53.251c21.433,11.5,49.317,4.288,59.89-15.495C562.2,30.611,542.317,0,503.743,0m5.984,61.317c-12.12-.132-20.625-9.32-20.547-22.2.075-12.46,8.736-21.627,20.471-21.666,12.035-.04,20.9,9.242,20.922,21.9.022,12.681-8.91,22.091-20.846,21.961" transform="translate(-139.073 0)"/>
  </g>
</svg>
