<?xml version="1.0" encoding="utf-8"?>
<!-- Generator: Adobe Illustrator 27.4.0, SVG Export Plug-In . SVG Version: 6.00 Build 0)  -->
<svg version="1.1" id="Capa_1" xmlns="http://www.w3.org/2000/svg" xmlns:xlink="http://www.w3.org/1999/xlink" x="0px" y="0px"
	 viewBox="0 0 800 600" style="enable-background:new 0 0 800 600;" xml:space="preserve">
<style type="text/css">
	.st0{fill:#FFFFFF;}
</style>
<g>
	<path d="M565.36,248.01c54.92,0,83.22,43.58,62.38,82.58c-15.05,28.16-54.75,38.43-85.26,22.06
		c-27.03-14.51-37.06-48.81-21.67-75.81C532.45,256.41,551.24,248.26,565.36,248.01z M544.62,303.7c-0.11,18.33,12,31.42,29.25,31.6
		c16.99,0.19,29.71-13.21,29.68-31.26c-0.03-18.03-12.65-31.24-29.79-31.18C557.06,272.91,544.73,285.96,544.62,303.7z"/>
	<path d="M393.54,312.61v-18.46c0-0.58,0.47-1.05,1.05-1.05c7.02,0,14.01,0.05,21-0.01c11.2-0.09,22.44,0.16,33.6-0.56
		c6-0.39,11.54-3.3,11.11-10.66c-0.41-7.04-5.54-9.82-11.9-9.93c-14.65-0.26-29.31-0.17-43.97-0.22c-3.07-0.01-6.15,0-9.6,0
		c-0.58,0-1.05-0.47-1.05-1.05v-19.01c0-0.42,0.25-0.8,0.64-0.96c0.64-0.27,1.4-0.61,2.16-0.59c22.38,0.45,44.75,0.9,67.12,1.59
		c3.08,0.09,6.2,1.23,9.15,2.28c18.27,6.51,26.76,29.91,7.27,45.85c-0.47,0.38-0.54,1.08-0.13,1.52
		c4.87,5.27,10.98,9.98,13.91,16.19c8.22,17.42-2.89,35.17-23.87,38.81c-8.99,1.56-18.28,1.65-27.45,1.8
		c-15.71,0.26-31.43,0.08-47.69,0.08c-0.58,0-1.05-0.47-1.05-1.05v-19.95c0-0.58,0.47-1.05,1.04-1.05c7.44,0,15,0.01,22.57,0
		c12.07-0.02,24.15,0.2,36.21-0.17c6.19-0.19,11.36-2.83,11.93-9.96c0.57-7.12-3.81-10.74-10.19-11.49
		c-6.8-0.8-13.72-0.81-20.59-0.87c-13.13-0.12-26.27-0.04-40.22-0.04C394.01,313.65,393.54,313.18,393.54,312.61z"/>
	<path d="M394.45,79.41l0.61-9.38c0.08-1.21,1.09-2.16,2.3-2.16h6.65c1.19,0,2.18,0.89,2.29,2.07c0.27,2.7,0.57,5.72,0.94,9.46
		c3.03,0,6.09,0,9.15,0c22.14,0,44.28-0.07,66.42,0.03c10.24,0.05,14.29,3.8,14.36,13.94c0.19,26.98,0.2,53.97-0.02,80.95
		c-0.1,12.44-4.36,15.09-17.27,15.09c-45.22,0-123.15,1.14-159.42,1.14c-15.04,0-16.7-6.08-16.54-16.93
		c0.39-26.6-0.21-53.2-0.01-79.8c0.06-7.93,6.49-14.35,14.42-14.39c22.14-0.11,44.28-0.04,66.42-0.04
		C387.84,79.41,390.93,79.41,394.45,79.41z M400.41,175.93c25.6,0,51.2-0.16,76.8,0.12c6.13,0.07,8.88-1.49,8.81-8.08
		c-0.25-22.97-0.23-45.95-0.01-68.92c0.06-6.49-2.58-8.17-8.78-8.15c-50.91,0.2-101.83,0.21-152.74,0c-6.49-0.03-9.29,1.5-9.18,8.57
		c0.36,22.68,0.38,45.38-0.01,68.06c-0.12,7.15,2.71,8.61,9.18,8.53C349.78,175.75,375.1,175.93,400.41,175.93z"/>
	<path d="M687.9,330.9v25.89c0,0.58-0.47,1.05-1.05,1.05h-28.06c-0.58,0-1.05-0.47-1.05-1.05v-49.77c0-0.58,0.47-1.05,1.05-1.05
		c5.85,0.01,11.68,0.05,17.51-0.01c10.63-0.12,21.29,0.16,31.87-0.64c10.75-0.81,16.15-6.61,16.02-15.5
		c-0.13-9.32-6.19-15.35-16.86-15.69c-13.21-0.42-26.44-0.18-39.66-0.23c-2.82-0.01-5.63,0-8.85,0c-0.58,0-1.05-0.47-1.05-1.05
		v-21.91c0-0.58,0.46-1.04,1.04-1.04c10.41-0.02,21.14-0.38,31.82,0.11c11.98,0.55,24.23,0.62,35.83,3.25
		c18.6,4.21,29.19,19.34,28.69,37.76c-0.48,17.74-12.02,32.35-29.87,36.34c-8.04,1.8-16.5,1.84-24.78,2.46
		c-3.63,0.27-7.29,0.08-11.55,0.05C688.38,329.85,687.9,330.32,687.9,330.9z"/>
	<path d="M150.3,251.75c-14.63,15.94-28.04,30.55-41.72,45.46c-0.34,0.38-0.37,0.95-0.06,1.35c14.72,19.11,29.17,37.87,44.64,57.96
		c0.53,0.69,0.04,1.69-0.83,1.69c-11.16,0.03-21,0.26-30.81-0.24c-2.18-0.11-4.57-2.96-6.25-5.04c-8.81-10.87-17.44-21.9-25.84-32.5
		c-0.31-0.39-0.85-0.51-1.29-0.29c-16.35,8.25-10.13,23.54-11.83,36.66c-0.07,0.52-0.52,0.9-1.05,0.9H47.33
		c-0.58,0-1.04-0.47-1.04-1.05c-0.02-9.01-0.28-17.8,0.2-26.55c0.14-2.45,2.34-5.1,4.2-7.11c21.28-22.97,42.6-45.91,64.19-68.6
		c2.24-2.35,6.24-3.98,9.54-4.21c7.81-0.54,15.67-0.25,25.13-0.2C150.45,249.99,150.92,251.08,150.3,251.75z"/>
	<path d="M310.45,358.74c-0.58,0-1.04-0.46-1.05-1.04c-0.03-5.48-0.24-24.29-0.24-26.64c0-9.23-5.43-21.08-18.06-38.61
		c-8.79-12.22-15.82-25.7-24.19-39.77c-0.41-0.7,0.09-1.58,0.9-1.58c9.82-0.03,18.4-0.28,26.94,0.24c2.13,0.13,4.69,2.79,6.03,4.93
		c7.27,11.68,14.26,23.54,22.08,36.59c0.41,0.68,1.39,0.68,1.8,0c7.32-12.14,14.32-23.19,20.63-34.62
		c2.71-4.91,8.07-7.67,13.66-7.23c5.56,0.44,11.21,0.13,17.67,0.07c0.78-0.01,1.29,0.82,0.95,1.52c-1.09,2.22-1.93,4.04-2.95,5.76
		c-10.46,17.47-21.37,34.69-31.24,52.49c-3.28,5.91-5.55,11.04-5.55,20c0,0-0.21,16.98-0.23,26.85c0,0.58-0.47,1.05-1.05,1.05
		H310.45z"/>
	<path d="M255.04,251.59v20.2c0,0.58-0.47,1.05-1.05,1.05h-82.27c-0.58,0-1.05-0.47-1.05-1.05v-20.2c0-0.58,0.47-1.05,1.05-1.05
		h82.27C254.57,250.54,255.04,251.01,255.04,251.59z"/>
	<path d="M254.85,293.36v19.93c0,0.58-0.47,1.05-1.05,1.05h-82.24c-0.58,0-1.05-0.47-1.05-1.05v-19.93c0-0.58,0.47-1.05,1.05-1.05
		h82.24C254.39,292.32,254.85,292.78,254.85,293.36z"/>
	<path d="M254.93,357.18c0,0.58-0.47,1.05-1.05,1.05c-26.52,0-52.26,0.01-78-0.02c-1.45,0-2.91-0.21-5.01-0.41
		c-0.53-0.05-0.94-0.5-0.94-1.04c-0.02-5.94-0.24-11.59,0.17-17.19c0.12-1.64,2.3-4.49,3.56-4.5c26.57-0.26,53.14-0.2,80.22-0.2
		c0.58,0,1.05,0.47,1.05,1.05V357.18z"/>
	<path d="M46.69,292.19v-40.51c0-0.58,0.47-1.05,1.05-1.05h27.32c0.48,0,0.9,0.32,1.02,0.78c1.68,6.63,0.44,12.21-5.02,17.48
		c-7.56,7.31-14.5,15.27-22.55,24C47.87,293.6,46.69,293.14,46.69,292.19z"/>
	<path class="st0" d="M544.62,303.7c0.11-17.74,12.44-30.79,29.14-30.84c17.13-0.06,29.75,13.16,29.79,31.18
		c0.03,18.05-12.68,31.45-29.68,31.26C556.62,335.11,544.51,322.03,544.62,303.7z"/>
	<path d="M355.49,152.21h89.87c1.53,0,2.77,1.24,2.77,2.77v5.29c0,1.53-1.24,2.77-2.77,2.77h-89.87c-1.53,0-2.77-1.24-2.77-2.77
		v-5.29C352.72,153.45,353.96,152.21,355.49,152.21z"/>
	<path d="M459.33,115.45l-6.53-0.42c-1.46-0.09-2.59-1.3-2.59-2.76v-5.36c0-1.53,1.24-2.77,2.77-2.77h16.72
		c1.53,0,2.77,1.24,2.77,2.77v29.15c0,1.53-1.24,2.77-2.77,2.77h-5.01c-1.53,0-2.77-1.24-2.77-2.77v-17.85
		C461.92,116.75,460.79,115.55,459.33,115.45z"/>
	<path d="M351.29,131.15v4.93c0,1.53-1.24,2.77-2.77,2.77h-17.29c-1.53,0-2.77-1.24-2.77-2.77v-4.93c0-1.53,1.24-2.77,2.77-2.77
		h17.29C350.05,128.38,351.29,129.62,351.29,131.15z"/>
	<path d="M328.24,111.84v-5.11c0-1.53,1.24-2.77,2.77-2.77h5.32c1.53,0,2.77,1.24,2.77,2.77v5.11c0,1.53-1.24,2.77-2.77,2.77H331
		C329.48,114.61,328.24,113.37,328.24,111.84z"/>
	<path d="M360.51,114.73h-5.24c-1.53,0-2.77-1.24-2.77-2.77v-5.18c0-1.53,1.24-2.77,2.77-2.77h5.24c1.53,0,2.77,1.24,2.77,2.77v5.18
		C363.28,113.49,362.04,114.73,360.51,114.73z"/>
	<path d="M384.73,114.72h-5.15c-1.53,0-2.77-1.24-2.77-2.77v-5.15c0-1.53,1.24-2.77,2.77-2.77h5.15c1.53,0,2.77,1.24,2.77,2.77v5.15
		C387.49,113.48,386.26,114.72,384.73,114.72z"/>
	<path d="M401.23,111.73v-5.06c0-1.53,1.24-2.77,2.77-2.77h4.86c1.53,0,2.77,1.24,2.77,2.77v5.06c0,1.53-1.24,2.77-2.77,2.77H404
		C402.47,114.5,401.23,113.26,401.23,111.73z"/>
	<path d="M375.55,131.13v4.83c0,1.53-1.24,2.77-2.77,2.77h-4.87c-1.53,0-2.77-1.24-2.77-2.77v-4.83c0-1.53,1.24-2.77,2.77-2.77h4.87
		C374.31,128.36,375.55,129.6,375.55,131.13z"/>
	<path d="M331.28,152.12h5.03c1.53,0,2.77,1.24,2.77,2.77v5.28c0,1.53-1.24,2.77-2.77,2.77h-5.03c-1.53,0-2.77-1.24-2.77-2.77v-5.28
		C328.51,153.36,329.75,152.12,331.28,152.12z"/>
	<path d="M436.01,106.84v5.18c0,1.53-1.24,2.77-2.77,2.77h-4.71c-1.53,0-2.77-1.24-2.77-2.77v-5.18c0-1.53,1.24-2.77,2.77-2.77h4.71
		C434.77,104.08,436.01,105.32,436.01,106.84z"/>
	<path d="M392.28,127.98h4.35c1.53,0,2.77,1.24,2.77,2.77v5.45c0,1.53-1.24,2.77-2.77,2.77h-4.35c-1.53,0-2.77-1.24-2.77-2.77v-5.45
		C389.51,129.22,390.75,127.98,392.28,127.98z"/>
	<path d="M423.86,131.13v4.96c0,1.53-1.24,2.77-2.77,2.77h-4.42c-1.53,0-2.77-1.24-2.77-2.77v-4.96c0-1.53,1.24-2.77,2.77-2.77h4.42
		C422.62,128.36,423.86,129.6,423.86,131.13z"/>
	<path d="M448.13,131.14v4.95c0,1.53-1.24,2.77-2.77,2.77h-4.43c-1.53,0-2.77-1.24-2.77-2.77v-4.95c0-1.53,1.24-2.77,2.77-2.77h4.43
		C446.89,128.37,448.13,129.61,448.13,131.14z"/>
	<path d="M472.47,155.14v5.2c0,1.53-1.24,2.77-2.77,2.77h-4.64c-1.53,0-2.77-1.24-2.77-2.77v-5.2c0-1.53,1.24-2.77,2.77-2.77h4.64
		C471.23,152.37,472.47,153.61,472.47,155.14z"/>
</g>
<g>
	<path d="M393.54,920.33v-18.46c0-0.58,0.47-1.05,1.05-1.05c7.02,0,14.01,0.05,21-0.01c11.2-0.09,22.44,0.16,33.6-0.56
		c6-0.39,11.54-3.3,11.11-10.66c-0.41-7.04-5.54-9.82-11.9-9.93c-14.65-0.26-29.31-0.17-43.97-0.22c-3.07-0.01-6.15,0-9.6,0
		c-0.58,0-1.05-0.47-1.05-1.05v-19.01c0-0.42,0.25-0.8,0.64-0.96c0.64-0.27,1.4-0.61,2.16-0.59c22.38,0.45,44.75,0.9,67.12,1.59
		c3.08,0.09,6.2,1.23,9.15,2.28c18.27,6.51,26.76,29.91,7.27,45.85c-0.47,0.38-0.54,1.08-0.13,1.52
		c4.87,5.27,10.98,9.98,13.91,16.19c8.22,17.42-2.89,35.17-23.87,38.81c-8.99,1.56-18.28,1.65-27.45,1.8
		c-15.71,0.26-31.43,0.08-47.69,0.08c-0.58,0-1.05-0.47-1.05-1.05v-19.95c0-0.58,0.47-1.05,1.04-1.05c7.44,0,15,0.01,22.57,0
		c12.07-0.02,24.15,0.2,36.21-0.17c6.19-0.19,11.36-2.83,11.93-9.96c0.57-7.12-3.81-10.74-10.19-11.49
		c-6.8-0.8-13.72-0.81-20.59-0.87c-13.13-0.12-26.27-0.04-40.22-0.04C394.01,921.37,393.54,920.9,393.54,920.33z"/>
	<path d="M687.9,938.62v25.89c0,0.58-0.47,1.05-1.05,1.05h-28.06c-0.58,0-1.05-0.47-1.05-1.05v-49.77c0-0.58,0.47-1.05,1.05-1.05
		c5.85,0.01,11.68,0.05,17.51-0.01c10.63-0.12,21.29,0.16,31.87-0.64c10.75-0.81,16.15-6.61,16.02-15.5
		c-0.13-9.32-6.19-15.35-16.86-15.69c-13.21-0.42-26.44-0.18-39.66-0.23c-2.82-0.01-5.63,0-8.85,0c-0.58,0-1.05-0.47-1.05-1.05
		v-21.91c0-0.58,0.46-1.04,1.04-1.04c10.41-0.02,21.14-0.38,31.82,0.11c11.98,0.55,24.23,0.62,35.83,3.25
		c18.6,4.21,29.19,19.34,28.69,37.76c-0.48,17.74-12.02,32.35-29.87,36.34c-8.04,1.8-16.5,1.84-24.78,2.46
		c-3.63,0.27-7.29,0.08-11.55,0.05C688.38,937.57,687.9,938.04,687.9,938.62z"/>
	<path d="M150.3,859.47c-14.63,15.94-28.04,30.55-41.72,45.46c-0.34,0.38-0.37,0.95-0.06,1.35c14.72,19.11,29.17,37.87,44.64,57.96
		c0.53,0.69,0.04,1.69-0.83,1.69c-11.16,0.03-21,0.26-30.81-0.24c-2.18-0.11-4.57-2.96-6.25-5.04c-8.81-10.87-17.44-21.9-25.84-32.5
		c-0.31-0.39-0.85-0.51-1.29-0.29c-16.35,8.25-10.13,23.54-11.83,36.66c-0.07,0.52-0.52,0.9-1.05,0.9H47.33
		c-0.58,0-1.04-0.47-1.04-1.05c-0.02-9.01-0.28-17.8,0.2-26.55c0.14-2.45,2.34-5.1,4.2-7.11c21.28-22.97,42.6-45.91,64.19-68.6
		c2.24-2.35,6.24-3.98,9.54-4.21c7.81-0.54,15.67-0.25,25.13-0.2C150.45,857.71,150.92,858.8,150.3,859.47z"/>
	<path d="M310.45,966.46c-0.58,0-1.04-0.46-1.05-1.04c-0.03-5.48-0.24-24.29-0.24-26.64c0-9.22-5.43-21.08-18.06-38.61
		c-8.79-12.22-15.82-25.7-24.19-39.77c-0.41-0.7,0.09-1.58,0.9-1.58c9.82-0.03,18.4-0.28,26.94,0.24c2.13,0.13,4.69,2.79,6.03,4.93
		c7.27,11.68,14.26,23.54,22.08,36.59c0.41,0.68,1.39,0.68,1.8,0c7.32-12.14,14.32-23.19,20.63-34.62
		c2.71-4.91,8.07-7.67,13.66-7.23c5.56,0.44,11.21,0.13,17.67,0.07c0.78-0.01,1.29,0.82,0.95,1.52c-1.09,2.22-1.93,4.04-2.95,5.76
		c-10.46,17.47-21.37,34.69-31.24,52.49c-3.28,5.91-5.55,11.04-5.55,20c0,0-0.21,16.98-0.23,26.85c0,0.58-0.47,1.05-1.05,1.05
		H310.45z"/>
	<path d="M255.04,859.31v20.2c0,0.58-0.47,1.05-1.05,1.05h-82.27c-0.58,0-1.05-0.47-1.05-1.05v-20.2c0-0.58,0.47-1.05,1.05-1.05
		h82.27C254.57,858.26,255.04,858.73,255.04,859.31z"/>
	<path d="M254.85,901.08v19.93c0,0.58-0.47,1.05-1.05,1.05h-82.24c-0.58,0-1.05-0.47-1.05-1.05v-19.93c0-0.58,0.47-1.05,1.05-1.05
		h82.24C254.39,900.04,254.85,900.5,254.85,901.08z"/>
	<path d="M254.93,964.9c0,0.58-0.47,1.05-1.05,1.05c-26.52,0-52.26,0.01-78-0.02c-1.45,0-2.91-0.21-5.01-0.41
		c-0.53-0.05-0.94-0.5-0.94-1.04c-0.02-5.94-0.24-11.59,0.17-17.19c0.12-1.64,2.3-4.49,3.56-4.5c26.57-0.26,53.14-0.2,80.22-0.2
		c0.58,0,1.05,0.47,1.05,1.05V964.9z"/>
	<path d="M46.69,899.91V859.4c0-0.58,0.47-1.05,1.05-1.05h27.32c0.48,0,0.9,0.32,1.02,0.78c1.68,6.63,0.44,12.21-5.02,17.48
		c-7.56,7.31-14.5,15.27-22.55,24C47.87,901.32,46.69,900.86,46.69,899.91z"/>
	<path d="M565.36,855.73c-14.12,0.25-32.91,8.4-44.55,28.83c-15.4,27-5.36,61.3,21.67,75.81c30.51,16.37,70.21,6.1,85.26-22.06
		C648.58,899.3,620.27,855.73,565.36,855.73z M573.87,943.02c-17.26-0.19-29.36-13.27-29.25-31.6
		c0.11-17.74,12.44-30.79,29.14-30.84c17.13-0.06,29.75,13.16,29.79,31.18C603.58,929.81,590.87,943.21,573.87,943.02z"/>
</g>
<g>
	<path d="M394.45,687.13l0.61-9.38c0.08-1.21,1.09-2.16,2.3-2.16h6.65c1.19,0,2.18,0.89,2.29,2.07c0.27,2.7,0.57,5.72,0.94,9.46
		c3.03,0,6.09,0,9.15,0c22.14,0,44.28-0.07,66.42,0.03c10.24,0.05,14.29,3.8,14.36,13.94c0.19,26.98,0.2,53.97-0.02,80.95
		c-0.1,12.44-4.36,15.09-17.27,15.09c-45.22,0-123.15,1.14-159.42,1.14c-15.04,0-16.7-6.08-16.54-16.93
		c0.39-26.6-0.21-53.2-0.01-79.8c0.06-7.93,6.49-14.35,14.42-14.39c22.14-0.11,44.28-0.04,66.42-0.04
		C387.84,687.13,390.93,687.13,394.45,687.13z M400.41,783.65c25.6,0,51.2-0.16,76.8,0.12c6.13,0.07,8.88-1.49,8.81-8.08
		c-0.25-22.97-0.23-45.95-0.01-68.92c0.06-6.49-2.58-8.17-8.78-8.15c-50.91,0.2-101.83,0.21-152.74,0c-6.49-0.03-9.29,1.5-9.18,8.57
		c0.36,22.68,0.38,45.38-0.01,68.06c-0.12,7.15,2.71,8.61,9.18,8.53C349.78,783.47,375.1,783.65,400.41,783.65z"/>
	<path d="M355.49,759.93h89.87c1.53,0,2.77,1.24,2.77,2.77v5.29c0,1.53-1.24,2.77-2.77,2.77h-89.87c-1.53,0-2.77-1.24-2.77-2.77
		v-5.29C352.72,761.17,353.96,759.93,355.49,759.93z"/>
	<path d="M459.33,723.17l-6.53-0.42c-1.46-0.09-2.59-1.3-2.59-2.76v-5.36c0-1.53,1.24-2.77,2.77-2.77h16.72
		c1.53,0,2.77,1.24,2.77,2.77v29.15c0,1.53-1.24,2.77-2.77,2.77h-5.01c-1.53,0-2.77-1.24-2.77-2.77v-17.85
		C461.92,724.47,460.79,723.27,459.33,723.17z"/>
	<path d="M351.29,738.87v4.93c0,1.53-1.24,2.77-2.77,2.77h-17.29c-1.53,0-2.77-1.24-2.77-2.77v-4.93c0-1.53,1.24-2.77,2.77-2.77
		h17.29C350.05,736.1,351.29,737.34,351.29,738.87z"/>
	<path d="M328.24,719.56v-5.11c0-1.53,1.24-2.77,2.77-2.77h5.32c1.53,0,2.77,1.24,2.77,2.77v5.11c0,1.53-1.24,2.77-2.77,2.77H331
		C329.48,722.33,328.24,721.09,328.24,719.56z"/>
	<path d="M360.51,722.45h-5.24c-1.53,0-2.77-1.24-2.77-2.77v-5.18c0-1.53,1.24-2.77,2.77-2.77h5.24c1.53,0,2.77,1.24,2.77,2.77v5.18
		C363.28,721.21,362.04,722.45,360.51,722.45z"/>
	<path d="M384.73,722.44h-5.15c-1.53,0-2.77-1.24-2.77-2.77v-5.15c0-1.53,1.24-2.77,2.77-2.77h5.15c1.53,0,2.77,1.24,2.77,2.77v5.15
		C387.49,721.2,386.26,722.44,384.73,722.44z"/>
	<path d="M401.23,719.45v-5.06c0-1.53,1.24-2.77,2.77-2.77h4.86c1.53,0,2.77,1.24,2.77,2.77v5.06c0,1.53-1.24,2.77-2.77,2.77H404
		C402.47,722.22,401.23,720.98,401.23,719.45z"/>
	<path d="M375.55,738.84v4.83c0,1.53-1.24,2.77-2.77,2.77h-4.87c-1.53,0-2.77-1.24-2.77-2.77v-4.83c0-1.53,1.24-2.77,2.77-2.77h4.87
		C374.31,736.08,375.55,737.32,375.55,738.84z"/>
	<path d="M331.28,759.84h5.03c1.53,0,2.77,1.24,2.77,2.77v5.28c0,1.53-1.24,2.77-2.77,2.77h-5.03c-1.53,0-2.77-1.24-2.77-2.77v-5.28
		C328.51,761.08,329.75,759.84,331.28,759.84z"/>
	<path d="M436.01,714.56v5.18c0,1.53-1.24,2.77-2.77,2.77h-4.71c-1.53,0-2.77-1.24-2.77-2.77v-5.18c0-1.53,1.24-2.77,2.77-2.77h4.71
		C434.77,711.8,436.01,713.03,436.01,714.56z"/>
	<path d="M392.28,735.7h4.35c1.53,0,2.77,1.24,2.77,2.77v5.45c0,1.53-1.24,2.77-2.77,2.77h-4.35c-1.53,0-2.77-1.24-2.77-2.77v-5.45
		C389.51,736.94,390.75,735.7,392.28,735.7z"/>
	<path d="M423.86,738.85v4.96c0,1.53-1.24,2.77-2.77,2.77h-4.42c-1.53,0-2.77-1.24-2.77-2.77v-4.96c0-1.53,1.24-2.77,2.77-2.77h4.42
		C422.62,736.08,423.86,737.32,423.86,738.85z"/>
	<path d="M448.13,738.86v4.95c0,1.53-1.24,2.77-2.77,2.77h-4.43c-1.53,0-2.77-1.24-2.77-2.77v-4.95c0-1.53,1.24-2.77,2.77-2.77h4.43
		C446.89,736.09,448.13,737.33,448.13,738.86z"/>
	<path d="M472.47,762.86v5.2c0,1.53-1.24,2.77-2.77,2.77h-4.64c-1.53,0-2.77-1.24-2.77-2.77v-5.2c0-1.53,1.24-2.77,2.77-2.77h4.64
		C471.23,760.09,472.47,761.33,472.47,762.86z"/>
</g>
</svg>
