<?xml version="1.0" encoding="utf-8"?>
<!-- Generator: Adobe Illustrator 27.4.0, SVG Export Plug-In . SVG Version: 6.00 Build 0)  -->
<svg version="1.1" id="Capa_1" xmlns="http://www.w3.org/2000/svg" xmlns:xlink="http://www.w3.org/1999/xlink" x="0px" y="0px"
	 viewBox="0 0 226.33 141.73" style="enable-background:new 0 0 226.33 141.73;" xml:space="preserve">
<path d="M106.77,21.14l0.61-9.38c0.08-1.21,1.09-2.16,2.3-2.16h6.65c1.19,0,2.18,0.89,2.29,2.07c0.27,2.7,0.57,5.72,0.94,9.46
	c3.03,0,6.09,0,9.15,0c22.14,0,44.28-0.07,66.42,0.03c10.24,0.05,14.29,3.8,14.36,13.94c0.19,26.98,0.2,53.97-0.02,80.95
	c-0.1,12.44-4.36,15.09-17.27,15.09c-45.22,0-123.15,1.14-159.42,1.14c-15.04,0-16.7-6.08-16.54-16.93
	c0.39-26.6-0.21-53.2-0.01-79.8c0.06-7.93,6.49-14.35,14.42-14.39c22.14-0.11,44.28-0.04,66.42-0.04
	C100.17,21.14,103.26,21.14,106.77,21.14z M112.74,117.65c25.6,0,51.2-0.16,76.8,0.12c6.13,0.07,8.88-1.49,8.81-8.08
	c-0.25-22.97-0.23-45.95-0.01-68.92c0.06-6.49-2.58-8.17-8.78-8.15c-50.91,0.2-101.83,0.21-152.74,0c-6.49-0.03-9.29,1.5-9.18,8.57
	c0.36,22.68,0.38,45.38-0.01,68.06c-0.12,7.15,2.71,8.61,9.18,8.53C62.11,117.47,87.43,117.65,112.74,117.65z"/>
<path d="M67.82,93.94h89.87c1.53,0,2.77,1.24,2.77,2.77v5.29c0,1.53-1.24,2.77-2.77,2.77H67.82c-1.53,0-2.77-1.24-2.77-2.77V96.7
	C65.05,95.18,66.29,93.94,67.82,93.94z"/>
<path d="M171.66,57.17l-6.53-0.42c-1.46-0.09-2.59-1.3-2.59-2.76v-5.36c0-1.53,1.24-2.77,2.77-2.77h16.72
	c1.53,0,2.77,1.24,2.77,2.77v29.15c0,1.53-1.24,2.77-2.77,2.77h-5.01c-1.53,0-2.77-1.24-2.77-2.77V59.94
	C174.25,58.48,173.11,57.27,171.66,57.17z"/>
<path d="M63.61,72.87v4.93c0,1.53-1.24,2.77-2.77,2.77H43.56c-1.53,0-2.77-1.24-2.77-2.77v-4.93c0-1.53,1.24-2.77,2.77-2.77h17.29
	C62.38,70.1,63.61,71.34,63.61,72.87z"/>
<path d="M40.57,53.57v-5.11c0-1.53,1.24-2.77,2.77-2.77h5.32c1.53,0,2.77,1.24,2.77,2.77v5.11c0,1.53-1.24,2.77-2.77,2.77h-5.32
	C41.8,56.33,40.57,55.09,40.57,53.57z"/>
<path d="M72.84,56.45H67.6c-1.53,0-2.77-1.24-2.77-2.77v-5.18c0-1.53,1.24-2.77,2.77-2.77h5.24c1.53,0,2.77,1.24,2.77,2.77v5.18
	C75.6,55.21,74.37,56.45,72.84,56.45z"/>
<path d="M97.06,56.44h-5.15c-1.53,0-2.77-1.24-2.77-2.77v-5.15c0-1.53,1.24-2.77,2.77-2.77h5.15c1.53,0,2.77,1.24,2.77,2.77v5.15
	C99.82,55.2,98.58,56.44,97.06,56.44z"/>
<path d="M113.56,53.45V48.4c0-1.53,1.24-2.77,2.77-2.77h4.86c1.53,0,2.77,1.24,2.77,2.77v5.06c0,1.53-1.24,2.77-2.77,2.77h-4.86
	C114.8,56.22,113.56,54.98,113.56,53.45z"/>
<path d="M87.88,72.85v4.83c0,1.53-1.24,2.77-2.77,2.77h-4.87c-1.53,0-2.77-1.24-2.77-2.77v-4.83c0-1.53,1.24-2.77,2.77-2.77h4.87
	C86.64,70.08,87.88,71.32,87.88,72.85z"/>
<path d="M43.61,93.84h5.03c1.53,0,2.77,1.24,2.77,2.77v5.28c0,1.53-1.24,2.77-2.77,2.77h-5.03c-1.53,0-2.77-1.24-2.77-2.77v-5.28
	C40.84,95.08,42.08,93.84,43.61,93.84z"/>
<path d="M148.33,48.57v5.18c0,1.53-1.24,2.77-2.77,2.77h-4.71c-1.53,0-2.77-1.24-2.77-2.77v-5.18c0-1.53,1.24-2.77,2.77-2.77h4.71
	C147.1,45.8,148.33,47.04,148.33,48.57z"/>
<path d="M104.6,69.7h4.35c1.53,0,2.77,1.24,2.77,2.77v5.45c0,1.53-1.24,2.77-2.77,2.77h-4.35c-1.53,0-2.77-1.24-2.77-2.77v-5.45
	C101.84,70.94,103.08,69.7,104.6,69.7z"/>
<path d="M136.18,72.85v4.96c0,1.53-1.24,2.77-2.77,2.77h-4.42c-1.53,0-2.77-1.24-2.77-2.77v-4.96c0-1.53,1.24-2.77,2.77-2.77h4.42
	C134.95,70.08,136.18,71.32,136.18,72.85z"/>
<path d="M160.46,72.86v4.95c0,1.53-1.24,2.77-2.77,2.77h-4.43c-1.53,0-2.77-1.24-2.77-2.77v-4.95c0-1.53,1.24-2.77,2.77-2.77h4.43
	C159.22,70.09,160.46,71.33,160.46,72.86z"/>
<path d="M184.8,96.86v5.2c0,1.53-1.24,2.77-2.77,2.77h-4.64c-1.53,0-2.77-1.24-2.77-2.77v-5.2c0-1.53,1.24-2.77,2.77-2.77h4.64
	C183.56,94.1,184.8,95.33,184.8,96.86z"/>
</svg>
